<svg width="229" height="241" viewBox="0 0 229 241" fill="none" xmlns="http://www.w3.org/2000/svg">
<path opacity="0.76" d="M182.38 73.1974L148.498 36.1097C144.767 32.0257 139.979 28.9998 134.616 27.3358C129.254 25.6718 123.505 25.4283 117.947 26.6297L67.4785 37.5544C61.921 38.7566 56.7508 41.3622 52.488 45.1093C48.2251 48.8563 45.0198 53.6128 43.1944 58.9002L26.6071 106.913C24.7815 112.2 24.3995 117.832 25.4995 123.242C26.5994 128.653 29.1426 133.651 32.8736 137.736L66.7557 174.826C70.4866 178.911 75.2742 181.938 80.6372 183.602C86.0002 185.266 91.7496 185.509 97.3073 184.306L147.772 173.386C153.33 172.184 158.501 169.578 162.765 165.831C167.029 162.083 170.235 157.326 172.061 152.038L188.647 104.023C190.472 98.7354 190.854 93.1032 189.754 87.6924C188.653 82.2815 186.11 77.2825 182.38 73.1974Z" fill="#BCDFFE"/>
<path opacity="0.76" d="M188.014 157.656L174.462 142.821C172.969 141.187 171.054 139.977 168.909 139.311C166.764 138.646 164.464 138.548 162.241 139.029L142.054 143.399C139.831 143.88 137.763 144.922 136.057 146.421C134.352 147.92 133.07 149.822 132.34 151.937L125.705 171.142C124.975 173.257 124.822 175.51 125.262 177.674C125.702 179.838 126.719 181.838 128.212 183.471L141.764 198.308C143.257 199.942 145.172 201.152 147.317 201.818C149.462 202.484 151.762 202.581 153.985 202.1L174.171 197.732C176.394 197.251 178.463 196.208 180.168 194.709C181.874 193.21 183.156 191.308 183.887 189.192L190.521 169.986C191.251 167.871 191.404 165.618 190.964 163.454C190.524 161.29 189.506 159.29 188.014 157.656Z" fill="#B2DCFF" fill-opacity="0.42"/>
</svg>
