<svg width="159" height="157" viewBox="0 0 159 157" fill="none" xmlns="http://www.w3.org/2000/svg">
<g clip-path="url(#clip0_77_113)">
<path opacity="0.76" d="M92.0006 35.9891C91.6756 37.1251 91.0396 38.1581 90.1536 38.9881C89.2666 39.8171 88.1556 40.4191 86.9226 40.7221H86.9216L71.7986 44.4471C71.7976 44.4471 71.7976 44.4471 71.7976 44.4471C70.5646 44.7501 69.2556 44.7441 68.0046 44.4181C66.7536 44.0921 65.6136 43.4611 64.7016 42.5901C64.7006 42.5901 64.7006 42.5901 64.7006 42.5901L53.6636 32.0547L53.6626 32.0545C52.7506 31.184 52.1036 30.1106 51.7786 28.9489C51.4526 27.788 51.4586 26.5795 51.7846 25.4432V25.4431L55.8706 11.1844V11.1841C56.1956 10.048 56.8316 9.01436 57.7176 8.18496C58.6036 7.35506 59.7156 6.75316 60.9486 6.44976L60.9496 6.44967L76.0736 2.72547L76.0746 2.72536C77.3076 2.42206 78.6166 2.42887 79.8676 2.75467C81.1196 3.08047 82.2596 3.71176 83.1716 4.58256C83.1716 4.58256 83.1716 4.58267 83.1716 4.58277L94.2086 15.1174C95.1206 15.9882 95.7676 17.0618 96.0936 18.2237C96.4186 19.3847 96.4126 20.5933 96.0876 21.7298L92.0006 35.9891Z" stroke="#093B80" stroke-width="5"/>
<path opacity="0.76" d="M46.3072 13.4174L74.3771 21.5396C77.4691 22.4345 80.2391 24.1201 82.4101 26.4271C84.5811 28.7341 86.0761 31.5812 86.7451 34.6826L92.8171 62.8486C93.4861 65.9506 93.3051 69.1966 92.2921 72.2616C91.2791 75.3266 89.4711 78.1016 87.0481 80.3086L65.0491 100.353C62.6261 102.56 59.6741 104.121 56.4911 104.879C53.3081 105.636 50.0041 105.564 46.9131 104.67L18.8412 96.5476C15.7496 95.6536 12.979 93.9676 10.8079 91.6606C8.63683 89.3536 7.14183 86.5066 6.47313 83.4046L0.400231 55.2416C-0.269069 52.1396 -0.0882658 48.8926 0.924534 45.8266C1.93723 42.7616 3.74613 39.9856 6.16943 37.7786L28.1699 17.7342C30.5932 15.5276 33.5448 13.967 36.7285 13.2093C39.9121 12.4515 43.2156 12.5233 46.3072 13.4174Z" fill="#B9DDFC" fill-opacity="0.63"/>
<path opacity="0.76" d="M112.605 18.2679L140.515 26.96C143.588 27.9176 146.324 29.6589 148.448 32.0089C150.573 34.3589 152.01 37.2344 152.615 40.3484L158.109 68.6204C158.715 71.7334 158.467 74.9744 157.391 78.0164C156.315 81.0584 154.449 83.7954 151.98 85.9514L129.564 105.531C127.096 107.687 124.111 109.186 120.912 109.878C117.712 110.57 114.409 110.431 111.336 109.474L83.4251 100.782C80.3511 99.8254 77.6141 98.0844 75.4901 95.7344C73.3661 93.3834 71.9291 90.5074 71.3241 87.3944L65.8281 59.1244C65.2231 56.0114 65.4701 52.7694 66.5461 49.7274C67.6221 46.6844 69.4891 43.9474 71.9581 41.7914L94.3751 22.2104C96.8441 20.0548 99.8291 18.5557 103.029 17.8637C106.229 17.1717 109.531 17.3111 112.605 18.2679Z" fill="#A2CEF1" fill-opacity="0.51"/>
<path opacity="0.76" d="M54.4679 113.667L65.5559 117.393C66.7769 117.804 67.8559 118.524 68.6849 119.483C69.5129 120.441 70.0619 121.604 70.2759 122.854L72.2189 134.204C72.4329 135.454 72.3039 136.747 71.8459 137.953C71.3879 139.159 70.6169 140.236 69.6099 141.076L60.4639 148.7C59.4569 149.54 58.2499 150.112 56.9629 150.36C55.6769 150.607 54.3569 150.522 53.1359 150.112L42.0472 146.386C40.826 145.975 39.7469 145.255 38.9183 144.296C38.0897 143.338 37.5409 142.175 37.3269 140.925L35.384 129.576C35.1698 128.326 35.2982 127.033 35.7562 125.826C36.2142 124.62 36.9857 123.543 37.993 122.703L47.1391 115.079C48.1469 114.239 49.3539 113.667 50.6409 113.419C51.9269 113.172 53.2469 113.257 54.4679 113.667Z" fill="#CDE7FC"/>
<path opacity="0.76" d="M131.356 140.119C131.008 141.412 130.327 142.588 129.377 143.533C128.427 144.477 127.237 145.162 125.915 145.507H125.914L109.71 149.748C109.709 149.748 109.709 149.748 109.709 149.748C108.388 150.093 106.985 150.086 105.645 149.715C104.304 149.344 103.083 148.625 102.106 147.634C102.105 147.634 102.105 147.634 102.105 147.634L90.2786 135.64L90.2775 135.64C89.3003 134.649 88.607 133.427 88.2588 132.105C87.9095 130.783 87.9159 129.407 88.2652 128.114V128.114L92.6433 111.882V111.881C92.9916 110.588 93.673 109.411 94.6224 108.467C95.5717 107.523 96.7632 106.837 98.0844 106.492L98.0855 106.492L114.291 102.252L114.292 102.252C115.613 101.907 117.016 101.915 118.356 102.285C119.697 102.656 120.919 103.375 121.896 104.366C121.896 104.366 121.896 104.366 121.896 104.367L133.722 116.359C134.699 117.35 135.393 118.573 135.742 119.895C136.09 121.217 136.084 122.593 135.736 123.887L131.356 140.119Z" stroke="#093B80" stroke-width="5"/>
</g>
<defs>
<clipPath id="clip0_77_113">
<rect width="158.43" height="156.82" fill="white"/>
</clipPath>
</defs>
</svg>
